# xmcd CD database file
#
# Track frame offsets:
#	150
#	7472
#	49492
#	70405
#	93892
#	109785
#	142837
#	164947
#	192207
#	214837
#	241035
#
# Disc length: 3587 seconds
#
# Revision: 7
# Processed by: cddbd v1.5.1PL0 Copyright (c) Steve Scherf et al.
# Submitted via: CDex 1.51
#
DISCID=a20e010b
DTITLE=B.B.King - Why I Sing The Blues
DYEAR=1900
DGENRE=Jazz
TTITLE0=Intro
TTITLE1=BB'S Theme
TTITLE2=Why I Sing The Blues
TTITLE3=Darling You Know I Love You
TTITLE4=Caledonia
TTITLE5=All Over Again
TTITLE6=Everyday I Have The Blues
TTITLE7=Sweet Little Angel
TTITLE8=The Thrill Is Gone
TTITLE9=Guess Who
TTITLE10=Payin The Coast Tobe The Boss
EXTD=
EXTT0=
EXTT1=
EXTT2=
EXTT3=
EXTT4=
EXTT5=
EXTT6=
EXTT7=
EXTT8=
EXTT9=
EXTT10=
PLAYORDER=
